HIERARCHY
ROOT Hips
{
	OFFSET -4.354967 87.784727 21.917690
	CHANNELS 6 Xposition Yposition Zposition Zrotation Yrotation Xrotation 
	JOINT Spine
	{
		OFFSET -0.000000 8.814246 -2.080107
		CHANNELS 3 Zrotation Yrotation Xrotation
		JOINT Spine1
		{
			OFFSET 0.000001 8.844141 -0.000000
			CHANNELS 3 Zrotation Yrotation Xrotation
			JOINT Spine2
			{
				OFFSET 0.000000 11.682268 0.000000
				CHANNELS 3 Zrotation Yrotation Xrotation
				JOINT Spine3
				{
					OFFSET -0.000000 11.746700 -0.000001
					CHANNELS 3 Zrotation Yrotation Xrotation
					JOINT Neck
					{
						OFFSET -0.000000 17.658264 0.000000
						CHANNELS 3 Zrotation Yrotation Xrotation
						JOINT Neck1
						{
							OFFSET 0.000000 5.101515 -0.000000
							CHANNELS 3 Zrotation Yrotation Xrotation
							JOINT Head
							{
								OFFSET 0.000000 5.101515 -0.000000
								CHANNELS 3 Zrotation Yrotation Xrotation
								JOINT HeadEnd
								{
									OFFSET -0.000000 11.655084 -0.000001
									CHANNELS 3 Zrotation Yrotation Xrotation
									End Site
									{
										OFFSET 0.000000 0.000000 0.000000
									}
								}
							}
						}
					}
					JOINT RightShoulder
					{
						OFFSET -2.625389 11.175209 -0.000000
						CHANNELS 3 Zrotation Yrotation Xrotation
						JOINT RightArm
						{
							OFFSET 0.000000 10.434715 -0.000000
							CHANNELS 3 Zrotation Yrotation Xrotation
							JOINT RightForeArm
							{
								OFFSET 0.000000 29.628420 -0.000000
								CHANNELS 3 Zrotation Yrotation Xrotation
								JOINT RightHand
								{
									OFFSET 0.000000 22.857611 0.000000
									CHANNELS 3 Zrotation Yrotation Xrotation
									JOINT RightHandThumb1
									{
										OFFSET -2.867323 3.959563 2.944291
										CHANNELS 3 Zrotation Yrotation Xrotation
										JOINT RightHandThumb2
										{
											OFFSET 0.000000 3.350399 0.000000
											CHANNELS 3 Zrotation Yrotation Xrotation
											JOINT RightHandThumb3
											{
												OFFSET 0.000000 3.756509 -0.000000
												CHANNELS 3 Zrotation Yrotation Xrotation
												JOINT RightHandThumb4
												{
													OFFSET 0.000000 3.147345 0.000000
													CHANNELS 3 Zrotation Yrotation Xrotation
													End Site
													{
														OFFSET 0.000000 0.000000 0.000000
													}
												}
											}
										}
									}
									JOINT RightHandIndex1
									{
										OFFSET -0.086752 10.030893 2.345280
										CHANNELS 3 Zrotation Yrotation Xrotation
										JOINT RightHandIndex2
										{
											OFFSET -0.000000 4.061090 0.000001
											CHANNELS 3 Zrotation Yrotation Xrotation
											JOINT RightHandIndex3
											{
												OFFSET 0.000000 3.248873 0.000000
												CHANNELS 3 Zrotation Yrotation Xrotation
												JOINT RightHandIndex4
												{
													OFFSET 0.000000 2.639709 0.000001
													CHANNELS 3 Zrotation Yrotation Xrotation
													End Site
													{
														OFFSET 0.000000 0.000000 0.000000
													}
												}
											}
										}
									}
									JOINT RightHandMiddle1
									{
										OFFSET 0.104102 9.502952 0.006768
										CHANNELS 3 Zrotation Yrotation Xrotation
										JOINT RightHandMiddle2
										{
											OFFSET -0.000000 4.568726 0.000000
											CHANNELS 3 Zrotation Yrotation Xrotation
											JOINT RightHandMiddle3
											{
												OFFSET -0.000000 3.654981 0.000000
												CHANNELS 3 Zrotation Yrotation Xrotation
												JOINT RightHandMiddle4
												{
													OFFSET 0.000000 2.741236 0.000000
													CHANNELS 3 Zrotation Yrotation Xrotation
													End Site
													{
														OFFSET 0.000000 0.000000 0.000000
													}
												}
											}
										}
									}
									JOINT RightHandRing1
									{
										OFFSET 0.086752 8.921708 -2.267442
										CHANNELS 3 Zrotation Yrotation Xrotation
										JOINT RightHandRing2
										{
											OFFSET -0.000000 4.061090 0.000000
											CHANNELS 3 Zrotation Yrotation Xrotation
											JOINT RightHandRing3
											{
												OFFSET 0.000000 3.654981 0.000000
												CHANNELS 3 Zrotation Yrotation Xrotation
												JOINT RightHandRing4
												{
													OFFSET -0.000000 2.741236 0.000000
													CHANNELS 3 Zrotation Yrotation Xrotation
													End Site
													{
														OFFSET 0.000000 0.000000 0.000000
													}
												}
											}
										}
									}
									JOINT RightHandPinky1
									{
										OFFSET -0.173504 7.976997 -4.467199
										CHANNELS 3 Zrotation Yrotation Xrotation
										JOINT RightHandPinky2
										{
											OFFSET 0.000000 3.350399 -0.000000
											CHANNELS 3 Zrotation Yrotation Xrotation
											JOINT RightHandPinky3
											{
												OFFSET 0.000001 2.842763 -0.000000
												CHANNELS 3 Zrotation Yrotation Xrotation
												JOINT RightHandPinky4
												{
													OFFSET 0.000000 2.639709 0.000000
													CHANNELS 3 Zrotation Yrotation Xrotation
													End Site
													{
														OFFSET 0.000000 0.000000 0.000000
													}
												}
											}
										}
									}
									JOINT RightForeArmEnd
									{
										OFFSET 0.000001 0.000000 0.000000
										CHANNELS 3 Zrotation Yrotation Xrotation
										End Site
										{
											OFFSET 0.000000 0.000000 0.000000
										}
									}
								}
								JOINT RightArmEnd
								{
									OFFSET 0.000000 0.000000 0.000000
									CHANNELS 3 Zrotation Yrotation Xrotation
									End Site
									{
										OFFSET 0.000000 0.000000 0.000000
									}
								}
							}
						}
					}
					JOINT LeftShoulder
					{
						OFFSET 2.625389 11.175211 0.000000
						CHANNELS 3 Zrotation Yrotation Xrotation
						JOINT LeftArm
						{
							OFFSET -0.000000 10.813635 -0.000000
							CHANNELS 3 Zrotation Yrotation Xrotation
							JOINT LeftForeArm
							{
								OFFSET 0.000001 28.724781 0.000000
								CHANNELS 3 Zrotation Yrotation Xrotation
								JOINT LeftHand
								{
									OFFSET 0.644384 25.716167 -0.328871
									CHANNELS 3 Zrotation Yrotation Xrotation
									JOINT LeftHandThumb1
									{
										OFFSET 2.867323 3.959563 2.944291
										CHANNELS 3 Zrotation Yrotation Xrotation
										JOINT LeftHandThumb2
										{
											OFFSET 0.000000 3.350399 -0.000001
											CHANNELS 3 Zrotation Yrotation Xrotation
											JOINT LeftHandThumb3
											{
												OFFSET -0.000000 3.756510 -0.000000
												CHANNELS 3 Zrotation Yrotation Xrotation
												JOINT LeftHandThumb4
												{
													OFFSET 0.000000 3.100000 0.000000
													CHANNELS 3 Zrotation Yrotation Xrotation
													End Site
													{
														OFFSET 0.000000 0.000000 0.000000
													}
												}
											}
										}
									}
									JOINT LeftHandIndex1
									{
										OFFSET 0.086752 10.030893 2.345280
										CHANNELS 3 Zrotation Yrotation Xrotation
										JOINT LeftHandIndex2
										{
											OFFSET -0.000001 4.061090 -0.000000
											CHANNELS 3 Zrotation Yrotation Xrotation
											JOINT LeftHandIndex3
											{
												OFFSET 0.000000 3.248873 -0.000000
												CHANNELS 3 Zrotation Yrotation Xrotation
												JOINT LeftHandIndex4
												{
													OFFSET 0.000000 2.639709 0.000000
													CHANNELS 3 Zrotation Yrotation Xrotation
													End Site
													{
														OFFSET 0.000000 0.000000 0.000000
													}
												}
											}
										}
									}
									JOINT LeftHandMiddle1
									{
										OFFSET -0.104102 9.502952 0.006769
										CHANNELS 3 Zrotation Yrotation Xrotation
										JOINT LeftHandMiddle2
										{
											OFFSET 0.000000 4.568727 -0.000000
											CHANNELS 3 Zrotation Yrotation Xrotation
											JOINT LeftHandMiddle3
											{
												OFFSET 0.000000 3.654981 0.000000
												CHANNELS 3 Zrotation Yrotation Xrotation
												JOINT LeftHandMiddle4
												{
													OFFSET -0.000000 2.741236 -0.000000
													CHANNELS 3 Zrotation Yrotation Xrotation
													End Site
													{
														OFFSET 0.000000 0.000000 0.000000
													}
												}
											}
										}
									}
									JOINT LeftHandRing1
									{
										OFFSET -0.086752 8.921708 -2.267442
										CHANNELS 3 Zrotation Yrotation Xrotation
										JOINT LeftHandRing2
										{
											OFFSET 0.000001 4.061090 -0.000000
											CHANNELS 3 Zrotation Yrotation Xrotation
											JOINT LeftHandRing3
											{
												OFFSET 0.000000 3.654981 -0.000000
												CHANNELS 3 Zrotation Yrotation Xrotation
												JOINT LeftHandRing4
												{
													OFFSET -0.000000 2.741236 -0.000000
													CHANNELS 3 Zrotation Yrotation Xrotation
													End Site
													{
														OFFSET 0.000000 0.000000 0.000000
													}
												}
											}
										}
									}
									JOINT LeftHandPinky1
									{
										OFFSET 0.173504 7.976997 -4.467199
										CHANNELS 3 Zrotation Yrotation Xrotation
										JOINT LeftHandPinky2
										{
											OFFSET -0.000000 3.350399 -0.000000
											CHANNELS 3 Zrotation Yrotation Xrotation
											JOINT LeftHandPinky3
											{
												OFFSET -0.000000 2.842763 0.000000
												CHANNELS 3 Zrotation Yrotation Xrotation
												JOINT LeftHandPinky4
												{
													OFFSET -0.000000 2.639709 0.000000
													CHANNELS 3 Zrotation Yrotation Xrotation
													End Site
													{
														OFFSET 0.000000 0.000000 0.000000
													}
												}
											}
										}
									}
									JOINT LeftForeArmEnd
									{
										OFFSET 0.000000 -0.000000 0.000000
										CHANNELS 3 Zrotation Yrotation Xrotation
										End Site
										{
											OFFSET 0.000000 0.000000 0.000000
										}
									}
								}
								JOINT LeftArmEnd
								{
									OFFSET -0.000000 0.000000 0.000000
									CHANNELS 3 Zrotation Yrotation Xrotation
									End Site
									{
										OFFSET 0.000000 0.000000 0.000000
									}
								}
							}
						}
					}
				}
			}
		}
	}
	JOINT RightUpLeg
	{
		OFFSET -11.289943 -0.000000 -0.000000
		CHANNELS 3 Zrotation Yrotation Xrotation
		JOINT RightLeg
		{
			OFFSET -0.000000 -38.200325 -0.000000
			CHANNELS 3 Zrotation Yrotation Xrotation
			JOINT RightFoot
			{
				OFFSET -0.000000 -39.900857 0.000000
				CHANNELS 3 Zrotation Yrotation Xrotation
				JOINT RightToeBase
				{
					OFFSET -0.000000 0.000000 15.261641
					CHANNELS 3 Zrotation Yrotation Xrotation
					JOINT RightToeBaseEnd
					{
						OFFSET 0.000000 0.000000 7.370709
						CHANNELS 3 Zrotation Yrotation Xrotation
						End Site
						{
							OFFSET 0.000000 0.000000 0.000000
						}
					}
				}
				JOINT RightLegEnd
				{
					OFFSET 0.000000 0.000000 -0.000000
					CHANNELS 3 Zrotation Yrotation Xrotation
					End Site
					{
						OFFSET 0.000000 0.000000 0.000000
					}
				}
			}
			JOINT RightUpLegEnd
			{
				OFFSET 0.000000 -0.000000 0.000000
				CHANNELS 3 Zrotation Yrotation Xrotation
				End Site
				{
					OFFSET 0.000000 0.000000 0.000000
				}
			}
		}
	}
	JOINT LeftUpLeg
	{
		OFFSET 11.315662 0.000000 0.000000
		CHANNELS 3 Zrotation Yrotation Xrotation
		JOINT LeftLeg
		{
			OFFSET 0.000000 -38.200325 -0.000000
			CHANNELS 3 Zrotation Yrotation Xrotation
			JOINT LeftFoot
			{
				OFFSET 0.000000 -39.900855 0.000000
				CHANNELS 3 Zrotation Yrotation Xrotation
				JOINT LeftToeBase
				{
					OFFSET 0.000000 0.000000 15.261641
					CHANNELS 3 Zrotation Yrotation Xrotation
					JOINT LeftToeBaseEnd
					{
						OFFSET 0.000000 -0.000000 7.539997
						CHANNELS 3 Zrotation Yrotation Xrotation
						End Site
						{
							OFFSET 0.000000 0.000000 0.000000
						}
					}
				}
				JOINT LeftLegEnd
				{
					OFFSET 0.000000 -0.000000 0.000000
					CHANNELS 3 Zrotation Yrotation Xrotation
					End Site
					{
						OFFSET 0.000000 0.000000 0.000000
					}
				}
			}
			JOINT LeftUpLegEnd
			{
				OFFSET -0.000000 -0.000000 0.000000
				CHANNELS 3 Zrotation Yrotation Xrotation
				End Site
				{
					OFFSET 0.000000 0.000000 0.000000
				}
			}
		}
	}
}
MOTION
Frames: 4
Frame Time: 0.016667
-4.354967 87.784727 21.917690 5.414104 21.110603 -9.740360 -0.683364 -0.456669 8.585568 -0.336778 0.389103 1.098904 -7.051204 4.409931 9.226778 -5.639791 0.803817 3.032800 2.794034 -6.410211 1.217578 -0.556003 -6.781096 -5.002504 0.882725 -1.147064 -11.839305 0.000001 0.000000 -0.000001 94.718414 -1.079541 13.690448 62.323582 -37.793533 12.776735 -0.602067 14.314810 15.454950 3.579984 9.989655 -1.031498 20.901556 29.841265 61.137661 -9.334293 -14.146070 -23.329752 -7.080554 -9.453240 -16.376232 0.000000 0.000015 0.000001 20.392853 -12.002913 0.629682 14.436243 0.251525 2.180271 14.435664 -0.233191 2.052333 0.000000 -0.000003 0.000000 19.314581 -6.914220 0.333665 13.665711 0.401596 0.846148 13.665483 -0.080637 0.728518 -0.000010 -0.000002 0.000007 20.702930 0.952343 1.651122 14.457768 -0.860255 -1.164958 14.456611 0.103843 -0.907753 -0.000000 0.000002 0.000049 21.845385 9.386917 1.589419 14.541805 -1.545140 -3.282249 14.535934 0.393084 -2.783802 0.000039 0.000004 0.000000 -0.000000 -0.000000 -0.000003 -0.000002 0.000000 -0.000000 -90.892761 0.150003 6.562551 -58.460220 19.717897 -6.422101 -0.727783 -6.118668 40.489700 0.655007 -20.686014 -15.011413 -21.366772 -29.744659 60.720562 9.674209 15.089850 -24.661572 7.396399 10.060589 -17.292700 -0.000003 0.000002 -0.000061 -23.985348 -4.420368 -2.125655 -16.822590 0.133592 -2.523594 -16.823393 -0.342750 -2.378492 0.000000 -0.000064 0.000002 -22.752670 0.436992 -1.463249 -16.282356 0.352462 -0.981329 -16.282312 -0.118307 -0.842554 -0.000010 0.000001 -0.000000 -25.036856 8.806520 -0.155082 -17.808804 -0.800389 1.382926 -17.808043 0.161719 1.077452 0.000001 -0.000006 0.000003 -24.767628 17.429358 0.677176 -17.740082 -1.395474 3.972122 -17.736647 0.511187 3.365618 0.000000 -0.000001 -0.000000 -0.000053 0.000007 0.000015 0.000009 -0.000002 -0.000003 -27.763603 -16.891350 14.931389 -0.519335 -2.486192 8.688931 15.860156 -20.042465 25.949717 -2.784162 2.238509 -20.625551 0.000022 -0.000021 0.000001 -0.000000 -0.000001 0.000002 0.000000 -0.000000 0.000009 -9.969560 -6.595934 11.133439 -0.022118 -0.022659 8.789648 5.754385 3.347593 17.592228 -0.809418 -0.807233 -19.052328 0.000000 0.000000 -0.000000 -0.000039 -0.000002 0.000002 0.000007 -0.000003 0.000008 
-4.354967 87.784727 21.917690 5.414104 21.110603 -9.740360 -0.683364 -0.456669 8.585568 -0.336778 0.389103 1.098904 -7.051204 4.409931 9.226778 -5.639791 0.803817 3.032800 2.794034 -6.410211 1.217578 -0.556003 -6.781096 -5.002504 0.882725 -1.147064 -11.839305 0.000001 0.000000 -0.000001 94.718414 -1.079541 13.690448 62.323582 -37.793533 12.776735 -0.602067 14.314810 15.454950 3.579984 9.989655 -1.031498 20.901556 29.841265 61.137661 -9.334293 -14.146070 -23.329752 -7.080554 -9.453240 -16.376232 0.000000 0.000015 0.000001 20.392853 -12.002913 0.629682 14.436243 0.251525 2.180271 14.435664 -0.233191 2.052333 0.000000 -0.000003 0.000000 19.314581 -6.914220 0.333665 13.665711 0.401596 0.846148 13.665483 -0.080637 0.728518 -0.000010 -0.000002 0.000007 20.702930 0.952343 1.651122 14.457768 -0.860255 -1.164958 14.456611 0.103843 -0.907753 -0.000000 0.000002 0.000049 21.845385 9.386917 1.589419 14.541805 -1.545140 -3.282249 14.535934 0.393084 -2.783802 0.000039 0.000004 0.000000 -0.000000 -0.000000 -0.000003 -0.000002 0.000000 -0.000000 -90.892761 0.150003 6.562551 -58.460220 19.717897 -6.422101 -0.727783 -6.118668 40.489700 0.655007 -20.686014 -15.011413 -21.366772 -29.744659 60.720562 9.674209 15.089850 -24.661572 7.396399 10.060589 -17.292700 -0.000003 0.000002 -0.000061 -23.985348 -4.420368 -2.125655 -16.822590 0.133592 -2.523594 -16.823393 -0.342750 -2.378492 0.000000 -0.000064 0.000002 -22.752670 0.436992 -1.463249 -16.282356 0.352462 -0.981329 -16.282312 -0.118307 -0.842554 -0.000010 0.000001 -0.000000 -25.036856 8.806520 -0.155082 -17.808804 -0.800389 1.382926 -17.808043 0.161719 1.077452 0.000001 -0.000006 0.000003 -24.767628 17.429358 0.677176 -17.740082 -1.395474 3.972122 -17.736647 0.511187 3.365618 0.000000 -0.000001 -0.000000 -0.000053 0.000007 0.000015 0.000009 -0.000002 -0.000003 -27.763603 -16.891350 14.931389 -0.519335 -2.486192 8.688931 15.860156 -20.042465 25.949717 -2.784162 2.238509 -20.625551 0.000022 -0.000021 0.000001 -0.000000 -0.000001 0.000002 0.000000 -0.000000 0.000009 -9.969560 -6.595934 11.133439 -0.022118 -0.022659 8.789648 5.754385 3.347593 17.592228 -0.809418 -0.807233 -19.052328 0.000000 0.000000 -0.000000 -0.000039 -0.000002 0.000002 0.000007 -0.000003 0.000008 
-4.354967 87.784727 21.917690 5.414104 21.110603 -9.740360 -0.683364 -0.456669 8.585568 -0.336778 0.389103 1.098904 -7.051204 4.409931 9.226778 -5.639791 0.803817 3.032800 2.794034 -6.410211 1.217578 -0.556003 -6.781096 -5.002504 0.882725 -1.147064 -11.839305 0.000001 0.000000 -0.000001 94.718414 -1.079541 13.690448 62.323582 -37.793533 12.776735 -0.602067 14.314810 15.454950 3.579984 9.989655 -1.031498 20.901556 29.841265 61.137661 -9.334293 -14.146070 -23.329752 -7.080554 -9.453240 -16.376232 0.000000 0.000015 0.000001 20.392853 -12.002913 0.629682 14.436243 0.251525 2.180271 14.435664 -0.233191 2.052333 0.000000 -0.000003 0.000000 19.314581 -6.914220 0.333665 13.665711 0.401596 0.846148 13.665483 -0.080637 0.728518 -0.000010 -0.000002 0.000007 20.702930 0.952343 1.651122 14.457768 -0.860255 -1.164958 14.456611 0.103843 -0.907753 -0.000000 0.000002 0.000049 21.845385 9.386917 1.589419 14.541805 -1.545140 -3.282249 14.535934 0.393084 -2.783802 0.000039 0.000004 0.000000 -0.000000 -0.000000 -0.000003 -0.000002 0.000000 -0.000000 -90.892761 0.150003 6.562551 -58.460220 19.717897 -6.422101 -0.727783 -6.118668 40.489700 0.655007 -20.686014 -15.011413 -21.366772 -29.744659 60.720562 9.674209 15.089850 -24.661572 7.396399 10.060589 -17.292700 -0.000003 0.000002 -0.000061 -23.985348 -4.420368 -2.125655 -16.822590 0.133592 -2.523594 -16.823393 -0.342750 -2.378492 0.000000 -0.000064 0.000002 -22.752670 0.436992 -1.463249 -16.282356 0.352462 -0.981329 -16.282312 -0.118307 -0.842554 -0.000010 0.000001 -0.000000 -25.036856 8.806520 -0.155082 -17.808804 -0.800389 1.382926 -17.808043 0.161719 1.077452 0.000001 -0.000006 0.000003 -24.767628 17.429358 0.677176 -17.740082 -1.395474 3.972122 -17.736647 0.511187 3.365618 0.000000 -0.000001 -0.000000 -0.000053 0.000007 0.000015 0.000009 -0.000002 -0.000003 -27.763603 -16.891350 14.931389 -0.519335 -2.486192 8.688931 15.860156 -20.042465 25.949717 -2.784162 2.238509 -20.625551 0.000022 -0.000021 0.000001 -0.000000 -0.000001 0.000002 0.000000 -0.000000 0.000009 -9.969560 -6.595934 11.133439 -0.022118 -0.022659 8.789648 5.754385 3.347593 17.592228 -0.809418 -0.807233 -19.052328 0.000000 0.000000 -0.000000 -0.000039 -0.000002 0.000002 0.000007 -0.000003 0.000008 
-4.122773 87.812255 21.752975 5.166468 20.578768 -9.928526 -0.703322 -0.430864 8.640703 -0.390234 0.401732 1.140124 -7.025096 4.400848 9.310504 -5.579788 0.795644 3.069476 3.006808 -6.360756 1.053776 -0.503241 -6.667689 -5.096891 0.858277 -1.131709 -11.813379 0.000001 0.000000 -0.000001 94.659218 -1.073318 13.764308 62.125443 -38.102501 13.079631 -0.569309 14.396298 15.872525 3.353348 9.798894 -0.936933 20.924076 29.835371 61.116951 -9.354245 -14.189435 -23.393063 -7.097410 -9.482034 -16.421282 0.000000 0.000015 0.000001 20.560167 -12.041046 0.699608 14.560584 0.247532 2.197323 14.560188 -0.237217 2.068390 0.000000 -0.000003 0.000000 19.460409 -6.940991 0.403421 13.779471 0.399142 0.851933 13.779289 -0.082755 0.733490 -0.000010 -0.000002 0.000006 20.792122 0.940155 1.723487 14.528426 -0.859290 -1.169234 14.527380 0.105305 -0.911027 -0.000000 0.000002 0.000049 21.875177 9.386867 1.650212 14.553587 -1.545690 -3.290935 14.547882 0.393403 -2.791085 0.000039 0.000004 0.000000 -0.000000 -0.000000 -0.000003 -0.000002 0.000000 -0.000000 -90.785271 0.139342 6.671401 -58.486423 20.127983 -6.339649 -0.706731 -6.098582 40.592266 0.615725 -20.755386 -14.943663 -21.362766 -29.745951 60.724888 9.669703 15.081137 -24.648514 7.392798 10.055214 -17.283916 -0.000003 0.000002 -0.000061 -23.952749 -4.431751 -2.208905 -16.805729 0.134515 -2.523228 -16.806648 -0.342479 -2.378080 0.000000 -0.000063 0.000002 -22.720989 0.431346 -1.530134 -16.272747 0.351948 -0.981107 -16.272667 -0.119198 -0.842554 -0.000010 0.000001 -0.000000 -25.051588 8.810206 -0.215926 -17.826748 -0.800862 1.384240 -17.826010 0.161267 1.078656 0.000001 -0.000006 0.000003 -24.811924 17.439680 0.616269 -17.779245 -1.395408 3.980148 -17.775759 0.512206 3.372374 0.000000 -0.000001 -0.000000 -0.000053 0.000007 0.000015 0.000009 -0.000002 -0.000003 -27.603184 -17.015802 14.708062 -0.518692 -2.490557 8.689350 15.616315 -19.899307 26.729322 -2.676713 2.243527 -20.917070 0.000021 -0.000021 0.000001 -0.000000 -0.000001 0.000002 0.000000 -0.000000 0.000009 -9.810104 -6.207321 11.193405 -0.027115 -0.039938 8.808036 5.816126 3.821415 17.513958 -0.767527 -0.770084 -19.042053 0.000000 0.000000 -0.000000 -0.000039 -0.000002 0.000002 0.000007 -0.000004 0.000008 
